<svg width="194" height="57" viewBox="0 0 194 57" fill="none" xmlns="http://www.w3.org/2000/svg">
<path d="M29.7496 2.71428V0H27.0451V2.71428H24.3406V5.42856V8.14284H27.0451V10.8571H29.7496V8.14284H32.4542V5.42856V2.71428H29.7496Z" fill="#1E1C1D"/>
<path d="M29.7496 48.8571V46.1428H27.0451V48.8571H24.3406V51.5714V54.2857H27.0451V56.9999H29.7496V54.2857H32.4542V51.5714V48.8571H29.7496Z" fill="#1E1C1D"/>
<path d="M8.1136 27.143V24.4287H5.40906H2.70453V27.143H0V29.8573H2.70453V32.5715H5.40906H8.1136V29.8573H10.8181V27.143H8.1136Z" fill="#1E1C1D"/>
<path d="M54.0906 27.143V24.4287H51.3861H48.6816V27.143H45.9771V29.8573H48.6816V32.5715H51.3861H54.0906V29.8573H56.7952V27.143H54.0906Z" fill="#1E1C1D"/>
<path d="M43.2724 27.143V24.4287H45.9769V21.7144H48.6814V19.0001H51.386V16.2858H48.6814H45.9769H43.2724H40.5678V13.5716V10.8573V8.14299V5.42871H37.8633V8.14299H35.1588V10.8573H32.4542V13.5716H29.7497H27.0452H24.3407V10.8573H21.6361V8.14299H18.9316V5.42871H16.2271V8.14299V10.8573V13.5716V16.2858H13.5225H10.818H8.11347H5.40894V19.0001H8.11347V21.7144H10.818V24.4287H13.5225V27.143V29.8572V32.5715H10.818V35.2858H8.11347V38.0001H5.40894V40.7144H8.11347H10.818H13.5225H16.2271V43.4286V46.1429V48.8572V51.5715H18.9316V48.8572H21.6361V46.1429H24.3407V43.4286H27.0452H29.7497H32.4542V46.1429H35.1588V48.8572H37.8633V51.5715H40.5678V48.8572V46.1429V43.4286V40.7144H43.2724H45.9769H48.6814H51.386V38.0001H48.6814V35.2858H45.9769V32.5715H43.2724V29.8572V27.143Z" fill="#E0211C"/>
<path d="M29.4039 28.1841L36.3854 20.6173C36.5269 20.4753 36.3854 20.3096 36.1967 20.3096H32.8161C32.7504 20.325 32.687 20.3489 32.6274 20.3806L24.8283 28.8548V20.5147C24.8242 20.4617 24.7998 20.4123 24.7602 20.377C24.7206 20.3417 24.6689 20.3232 24.616 20.3254H21.9036C21.8757 20.3221 21.8474 20.3244 21.8204 20.3321C21.7934 20.3399 21.7682 20.353 21.7462 20.3706C21.7243 20.3882 21.7061 20.41 21.6926 20.4348C21.6791 20.4595 21.6707 20.4867 21.6677 20.5147V36.5006C21.6707 36.5286 21.6791 36.5558 21.6926 36.5805C21.7061 36.6053 21.7243 36.6271 21.7462 36.6447C21.7682 36.6623 21.7934 36.6754 21.8204 36.6832C21.8474 36.6909 21.8757 36.6932 21.9036 36.6899H24.616C24.6689 36.6921 24.7206 36.6736 24.7602 36.6383C24.7998 36.603 24.8242 36.5536 24.8283 36.5006V33.1393L27.2733 30.496L32.5094 36.611C32.5661 36.6488 32.6307 36.6731 32.6981 36.6821H36.2282C36.4404 36.6821 36.5584 36.5164 36.4169 36.3743L29.4039 28.1841Z" fill="white"/>
<path d="M166.505 19.1853C165.62 19.1853 164.754 19.4488 164.018 19.9426C163.282 20.4363 162.708 21.138 162.369 21.9591C162.03 22.7801 161.941 23.6835 162.114 24.5552C162.287 25.4268 162.713 26.2274 163.339 26.8558C163.966 27.4842 164.763 27.9121 165.632 28.0855C166.5 28.2589 167.4 28.1699 168.219 27.8298C169.037 27.4897 169.736 26.9138 170.228 26.1749C170.72 25.436 170.982 24.5673 170.982 23.6786C170.982 22.4869 170.511 21.344 169.671 20.5013C168.831 19.6587 167.693 19.1853 166.505 19.1853ZM166.505 26.572C165.933 26.5798 165.371 26.4169 164.891 26.104C164.41 25.791 164.033 25.3421 163.808 24.8141C163.582 24.286 163.517 23.7026 163.622 23.1377C163.727 22.5728 163.996 22.0518 164.396 21.6406C164.796 21.2295 165.309 20.9467 165.869 20.8281C166.429 20.7095 167.012 20.7605 167.543 20.9744C168.075 21.1884 168.531 21.5559 168.854 22.0302C169.177 22.5045 169.353 23.0645 169.359 23.6391C169.359 24.4014 169.059 25.1329 168.525 25.6746C167.99 26.2164 167.265 26.5247 166.505 26.5325V26.572Z" fill="#1E1C1D"/>
<path d="M193.87 20.9433C193.694 20.4786 193.382 20.0785 192.974 19.7962C192.566 19.514 192.083 19.363 191.587 19.3633H187.651V27.9844H189.304V24.2911H191.538C192.034 24.2892 192.518 24.1362 192.926 23.8523C193.333 23.5684 193.646 23.167 193.821 22.7011C193.935 22.4221 193.995 22.1238 193.998 21.8222C194.01 21.5238 193.967 21.2258 193.87 20.9433ZM191.587 22.7011H189.354V20.9433H191.587C191.82 20.9433 192.042 21.0359 192.207 21.2008C192.371 21.3656 192.463 21.5891 192.463 21.8222C192.463 22.0553 192.371 22.2789 192.207 22.4437C192.042 22.6085 191.82 22.7011 191.587 22.7011Z" fill="#1E1C1D"/>
<path d="M158.289 27.9161L156.262 24.124C156.592 24.0054 156.893 23.8158 157.143 23.5685C157.393 23.3211 157.586 23.022 157.709 22.6921C157.82 22.4125 157.876 22.1142 157.876 21.8132C157.875 21.5123 157.819 21.2141 157.709 20.9343C157.533 20.4695 157.22 20.0694 156.812 19.7872C156.405 19.505 155.921 19.354 155.426 19.3542H150.033V27.9754H151.647V24.2919H154.599L156.567 27.9161H158.289ZM151.647 20.9442H155.386C155.619 20.9442 155.841 21.0368 156.006 21.2016C156.17 21.3664 156.262 21.59 156.262 21.8231C156.262 22.0562 156.17 22.2797 156.006 22.4445C155.841 22.6094 155.619 22.702 155.386 22.702H151.647V20.9442Z" fill="#1E1C1D"/>
<path d="M144.022 23.6396H141.257V25.2197H143.549C143.275 25.6377 142.898 25.9772 142.455 26.2052C142.011 26.4332 141.516 26.5419 141.018 26.5206C140.52 26.4993 140.036 26.3487 139.613 26.0837C139.19 25.8186 138.843 25.4481 138.606 25.0082C138.368 24.5684 138.248 24.0742 138.258 23.574C138.268 23.0739 138.406 22.5847 138.66 22.1544C138.915 21.724 139.276 21.3672 139.708 21.1186C140.141 20.8701 140.63 20.7384 141.129 20.7363C141.585 20.7353 142.035 20.8442 142.441 21.0539C142.847 21.2635 143.196 21.5677 143.461 21.9411L144.72 20.9536C144.086 20.0991 143.169 19.4995 142.133 19.2622C141.098 19.0249 140.012 19.1655 139.071 19.6587C138.13 20.1519 137.394 20.9655 136.997 21.9537C136.599 22.9418 136.565 24.0398 136.901 25.0508C137.236 26.0619 137.92 26.9198 138.829 27.4707C139.738 28.0217 140.813 28.2297 141.861 28.0575C142.909 27.8852 143.861 27.344 144.547 26.5308C145.234 25.7176 145.609 24.6856 145.606 23.6199L144.022 23.6396Z" fill="#1E1C1D"/>
<path d="M181.019 19.3633V25.4563C181.013 25.6189 180.969 25.7778 180.891 25.9205C180.809 26.0848 180.682 26.2228 180.526 26.3188C180.369 26.4147 180.189 26.4649 180.006 26.4636H178.274C178.09 26.4649 177.91 26.4147 177.754 26.3188C177.597 26.2228 177.471 26.0848 177.388 25.9205C177.31 25.7778 177.266 25.6189 177.26 25.4563V19.3633H175.607V25.4465C175.607 25.7974 175.676 26.145 175.81 26.4691C175.944 26.7932 176.141 27.0876 176.389 27.3353C176.637 27.5831 176.931 27.7793 177.254 27.9127C177.578 28.0461 177.924 28.1141 178.274 28.1128H180.006C180.355 28.1141 180.702 28.0461 181.025 27.9127C181.349 27.7793 181.643 27.5831 181.891 27.3353C182.138 27.0876 182.335 26.7932 182.469 26.4691C182.603 26.145 182.672 25.7974 182.672 25.4465V19.3633H181.019Z" fill="#1E1C1D"/>
<path d="M113.921 19.1853C113.036 19.1853 112.17 19.4488 111.434 19.9426C110.698 20.4363 110.124 21.138 109.785 21.9591C109.446 22.7801 109.357 23.6835 109.53 24.5552C109.703 25.4268 110.129 26.2274 110.755 26.8558C111.382 27.4842 112.179 27.9121 113.048 28.0855C113.916 28.2589 114.816 28.1699 115.635 27.8298C116.453 27.4897 117.152 26.9138 117.644 26.1749C118.136 25.436 118.398 24.5673 118.398 23.6786C118.398 22.4869 117.927 21.344 117.087 20.5013C116.247 19.6587 115.109 19.1853 113.921 19.1853ZM113.921 26.572C113.349 26.572 112.789 26.4015 112.313 26.082C111.837 25.7626 111.466 25.3085 111.248 24.7775C111.029 24.2464 110.972 23.6621 111.085 23.0986C111.197 22.5352 111.474 22.0179 111.879 21.6122C112.285 21.2066 112.801 20.9308 113.363 20.8199C113.925 20.709 114.507 20.7679 115.035 20.9892C115.564 21.2105 116.015 21.5841 116.331 22.0629C116.648 22.5416 116.816 23.1039 116.814 23.6786C116.804 24.4408 116.494 25.1681 115.952 25.7025C115.411 26.2369 114.681 26.5352 113.921 26.5325V26.572Z" fill="#1E1C1D"/>
<path d="M89.5385 19.1853C88.6526 19.1834 87.786 19.4452 87.0484 19.9378C86.3109 20.4303 85.7355 21.1314 85.3951 21.9522C85.0548 22.7731 84.9647 23.6768 85.1363 24.5491C85.308 25.4214 85.7336 26.2229 86.3594 26.8523C86.9851 27.4817 87.7828 27.9106 88.6516 28.0848C89.5203 28.2589 90.421 28.1705 91.2397 27.8307C92.0583 27.4909 92.7581 26.915 93.2505 26.1759C93.7429 25.4368 94.0057 24.5677 94.0057 23.6786C94.0057 22.4886 93.5354 21.3472 92.6979 20.5048C91.8604 19.6625 90.7242 19.1879 89.5385 19.1853ZM89.5385 26.572C88.9655 26.574 88.4048 26.4051 87.9276 26.0868C87.4503 25.7686 87.078 25.3152 86.8578 24.7843C86.6377 24.2534 86.5795 23.6688 86.6909 23.1047C86.8022 22.5406 87.0779 22.0224 87.4831 21.6157C87.8882 21.2091 88.4046 20.9324 88.9667 20.8207C89.5288 20.709 90.1112 20.7673 90.6402 20.9883C91.1693 21.2092 91.621 21.5829 91.9381 22.0619C92.2552 22.5408 92.4235 23.1035 92.4215 23.6786C92.4112 24.4391 92.1029 25.165 91.5633 25.6991C91.0238 26.2332 90.2963 26.5326 89.5385 26.5325V26.572Z" fill="#1E1C1D"/>
<path d="M126.368 26.5334C125.862 26.5348 125.363 26.4027 124.924 26.1502C124.484 25.8977 124.118 25.5337 123.862 25.0946C123.606 24.6555 123.47 24.1567 123.467 23.6482C123.464 23.1397 123.594 22.6392 123.844 22.1969C124.094 21.7547 124.456 21.3861 124.892 21.1281C125.329 20.8701 125.825 20.7317 126.332 20.7268C126.839 20.722 127.338 20.8507 127.779 21.1003C128.221 21.3498 128.589 21.7114 128.848 22.1487L129.999 21.0625C129.454 20.2755 128.672 19.684 127.768 19.3739C126.864 19.0638 125.885 19.0513 124.973 19.3384C124.062 19.6254 123.265 20.1969 122.7 20.9697C122.134 21.7425 121.83 22.6762 121.83 23.635C121.83 24.5937 122.134 25.5275 122.7 26.3003C123.265 27.0731 124.062 27.6446 124.973 27.9316C125.885 28.2186 126.864 28.2061 127.768 27.896C128.672 27.586 129.454 26.9944 129.999 26.2075L128.848 25.1113C128.593 25.5441 128.231 25.9028 127.796 26.1521C127.361 26.4015 126.869 26.5329 126.368 26.5334Z" fill="#1E1C1D"/>
<path d="M102.241 23.5606L105.794 19.7093C105.872 19.6401 105.794 19.5513 105.695 19.5513H103.983C103.95 19.5464 103.917 19.5464 103.885 19.5513L99.9487 23.8668V19.65C99.9462 19.6229 99.9337 19.5978 99.9137 19.5795C99.8936 19.5612 99.8675 19.5511 99.8404 19.5513H98.4235C98.4093 19.5499 98.3949 19.5514 98.3813 19.5556C98.3676 19.5599 98.3549 19.5668 98.344 19.5759C98.333 19.5851 98.3239 19.5964 98.3173 19.6091C98.3107 19.6218 98.3067 19.6357 98.3054 19.65V27.7971C98.3102 27.8242 98.3251 27.8484 98.347 27.8649C98.3689 27.8814 98.3963 27.8889 98.4235 27.886H99.8109C99.8365 27.8864 99.8614 27.8777 99.8813 27.8615C99.9011 27.8452 99.9145 27.8224 99.9191 27.7971V26.0986L101.159 24.7457L103.826 27.8662H103.924H105.725C105.833 27.8662 105.892 27.7872 105.823 27.7181L102.241 23.5606Z" fill="#1E1C1D"/>
<path d="M77.8488 23.5606L81.4009 19.7093C81.4797 19.6401 81.4009 19.5513 81.3124 19.5513H79.5904C79.5578 19.5464 79.5246 19.5464 79.492 19.5513L75.5561 23.8668V19.65C75.5536 19.6229 75.5411 19.5978 75.5211 19.5795C75.5011 19.5612 75.4749 19.5511 75.4479 19.5513H74.0309C74.0167 19.5499 74.0023 19.5514 73.9887 19.5556C73.975 19.5599 73.9624 19.5668 73.9514 19.5759C73.9404 19.5851 73.9313 19.5964 73.9247 19.6091C73.9181 19.6218 73.9141 19.6357 73.9128 19.65V27.7971C73.9177 27.8242 73.9325 27.8484 73.9544 27.8649C73.9764 27.8814 74.0037 27.8889 74.0309 27.886H75.4183C75.4439 27.8864 75.4689 27.8777 75.4887 27.8615C75.5085 27.8452 75.5219 27.8224 75.5266 27.7971V26.0986L76.7664 24.7358L79.433 27.8564H79.5314H81.3321C81.4403 27.8564 81.4993 27.7774 81.4305 27.7082L77.8488 23.5606Z" fill="#1E1C1D"/>
<path d="M103.605 42.1257L102.07 39.6964C102.52 39.3725 102.878 38.9358 103.107 38.4299C103.337 37.9239 103.43 37.3663 103.378 36.8128C103.281 36.0083 102.891 35.2684 102.282 34.7359C101.673 34.2034 100.889 33.916 100.082 33.9292H96.5003C96.477 33.9259 96.4533 33.931 96.4334 33.9437C96.4136 33.9563 96.3989 33.9758 96.3921 33.9984V42.1455C96.3921 42.1691 96.4014 42.1917 96.418 42.2083C96.4346 42.225 96.4572 42.2344 96.4806 42.2344H97.9074C97.9309 42.2344 97.9534 42.225 97.97 42.2083C97.9866 42.1917 97.996 42.1691 97.996 42.1455V40.2692H100.515L101.735 42.2442C101.761 42.2533 101.788 42.2533 101.814 42.2442H103.506C103.522 42.247 103.537 42.2456 103.552 42.2402C103.567 42.2348 103.58 42.2256 103.59 42.2136C103.6 42.2016 103.606 42.1871 103.609 42.1717C103.612 42.1563 103.61 42.1404 103.605 42.1257ZM98.0157 35.5488H100.22C100.435 35.5316 100.651 35.5593 100.855 35.6302C101.059 35.7011 101.247 35.8136 101.405 35.9606C101.564 36.1076 101.69 36.286 101.777 36.4845C101.864 36.683 101.908 36.8973 101.908 37.114C101.908 37.3307 101.864 37.545 101.777 37.7435C101.69 37.9421 101.564 38.1204 101.405 38.2674C101.247 38.4145 101.059 38.527 100.855 38.5978C100.651 38.6687 100.435 38.6964 100.22 38.6792H98.0157V35.5488Z" fill="#1E1C1D"/>
<path d="M124.612 33.9984V39.3409L120.991 33.9984C120.977 33.9921 120.962 33.9889 120.947 33.9889C120.932 33.9889 120.917 33.9921 120.903 33.9984H119.446C119.42 33.9984 119.395 34.0088 119.377 34.0273C119.358 34.0459 119.348 34.071 119.348 34.0972V42.2344C119.346 42.2477 119.348 42.2613 119.352 42.274C119.357 42.2867 119.364 42.2982 119.373 42.3077C119.383 42.3172 119.394 42.3245 119.407 42.3289C119.42 42.3333 119.433 42.3347 119.446 42.3332H120.863C120.889 42.3332 120.914 42.3228 120.933 42.3042C120.951 42.2857 120.962 42.2606 120.962 42.2344V36.8919L124.612 42.3332H126.128C126.141 42.3347 126.154 42.3333 126.167 42.3289C126.18 42.3245 126.191 42.3172 126.201 42.3077C126.21 42.2982 126.217 42.2867 126.222 42.274C126.226 42.2613 126.228 42.2477 126.226 42.2344V33.9984C126.226 33.9722 126.216 33.9471 126.197 33.9286C126.179 33.9101 126.154 33.8997 126.128 33.8997H124.711C124.685 33.9019 124.662 33.913 124.644 33.9311C124.626 33.9491 124.615 33.973 124.612 33.9984Z" fill="#1E1C1D"/>
<path d="M90.3992 42.1857H91.7965C91.8123 42.1865 91.8281 42.1833 91.8424 42.1767C91.8568 42.17 91.8694 42.1599 91.879 42.1473C91.8887 42.1347 91.8952 42.1199 91.8979 42.1043C91.9007 42.0886 91.8996 42.0725 91.8949 42.0573L88.9429 33.9102C88.9337 33.8921 88.9196 33.8769 88.9022 33.8664C88.8848 33.856 88.8648 33.8506 88.8445 33.851H87.3095C87.2903 33.8499 87.2713 33.8551 87.2554 33.8658C87.2394 33.8764 87.2273 33.8921 87.2209 33.9102L84.269 42.0573C84.2618 42.0716 84.2586 42.0876 84.2597 42.1035C84.2608 42.1195 84.2662 42.1348 84.2753 42.1479C84.2843 42.1611 84.2968 42.1715 84.3112 42.1782C84.3257 42.1848 84.3417 42.1874 84.3576 42.1857H85.7548C85.7762 42.1852 85.7969 42.1784 85.8144 42.1661C85.832 42.1538 85.8454 42.1366 85.8532 42.1166L86.542 40.2304H89.6317L90.3303 42.1166C90.3348 42.1331 90.3436 42.1482 90.3556 42.1603C90.3677 42.1724 90.3827 42.1812 90.3992 42.1857ZM87.1127 38.601L88.0967 35.9939L89.0807 38.601H87.1127Z" fill="#1E1C1D"/>
<path d="M113.798 42.1856H115.196C115.211 42.1863 115.227 42.1832 115.242 42.1765C115.256 42.1698 115.269 42.1597 115.278 42.1471C115.288 42.1345 115.294 42.1198 115.297 42.1041C115.3 42.0884 115.299 42.0724 115.294 42.0572L112.342 33.9101C112.335 33.8927 112.322 33.8779 112.306 33.8674C112.291 33.8569 112.272 33.8511 112.254 33.8508H110.709C110.69 33.8511 110.671 33.8569 110.656 33.8674C110.64 33.8779 110.628 33.8927 110.62 33.9101L107.668 42.0572C107.664 42.0716 107.662 42.0868 107.665 42.1017C107.667 42.1166 107.673 42.1308 107.681 42.1432C107.69 42.1556 107.701 42.1658 107.714 42.1732C107.727 42.1805 107.742 42.1848 107.757 42.1856H109.183C109.204 42.1845 109.223 42.1773 109.239 42.1649C109.254 42.1526 109.266 42.1356 109.272 42.1164L109.961 40.2303H113.021L113.71 42.1164C113.716 42.1356 113.727 42.1526 113.743 42.1649C113.759 42.1773 113.778 42.1845 113.798 42.1856ZM110.522 38.6008L111.506 35.9938L112.49 38.6008H110.522Z" fill="#1E1C1D"/>
<path d="M133.606 42.4222C132.495 42.4362 131.418 42.0349 130.585 41.2964C130.569 41.2769 130.561 41.2525 130.561 41.2272C130.561 41.202 130.569 41.1776 130.585 41.1581L131.412 40.0817C131.42 40.0714 131.431 40.0631 131.443 40.0574C131.454 40.0517 131.468 40.0487 131.481 40.0487C131.494 40.0487 131.507 40.0517 131.519 40.0574C131.531 40.0631 131.541 40.0714 131.55 40.0817C132.145 40.5768 132.883 40.8675 133.655 40.9112C134.413 40.9112 134.915 40.5458 134.915 39.9237C134.915 39.3016 134.137 38.9362 133.242 38.5313C132.071 38.0375 130.753 37.4845 130.753 35.9538C130.753 34.4232 132.022 33.406 133.842 33.406C134.776 33.3959 135.686 33.706 136.42 34.2849C136.436 34.3044 136.445 34.3288 136.445 34.354C136.445 34.3793 136.436 34.4037 136.42 34.4232L135.751 35.6082C135.742 35.6187 135.731 35.6271 135.718 35.6329C135.705 35.6386 135.691 35.6416 135.677 35.6416C135.663 35.6416 135.65 35.6386 135.637 35.6329C135.624 35.6271 135.613 35.6187 135.604 35.6082C135.076 35.2154 134.44 34.9978 133.783 34.986C132.986 34.986 132.475 35.3613 132.475 35.9736C132.475 36.5858 133.232 36.9611 134.118 37.3067C135.299 37.7808 136.637 38.2943 136.637 39.904C136.617 41.1285 135.682 42.4222 133.606 42.4222Z" fill="#1E1C1D"/>
<path d="M76.9486 42.4221C75.8402 42.4366 74.7664 42.0351 73.9376 41.2964C73.9216 41.2769 73.9128 41.2525 73.9128 41.2272C73.9128 41.202 73.9216 41.1776 73.9376 41.1581L74.7641 40.0817C74.7734 40.0712 74.7847 40.0628 74.7974 40.057C74.8102 40.0512 74.824 40.0483 74.8379 40.0483C74.8519 40.0483 74.8657 40.0512 74.8784 40.057C74.8911 40.0628 74.9025 40.0712 74.9117 40.0817C75.5029 40.5779 76.2381 40.8689 77.0076 40.9112C77.7751 40.9112 78.2671 40.5458 78.2671 39.9237C78.2671 39.3015 77.4898 38.9362 76.5943 38.5313C75.4332 38.0375 74.1049 37.4845 74.1049 35.9538C74.1049 34.4232 75.3742 33.406 77.1946 33.406C78.1285 33.3959 79.038 33.706 79.7726 34.2849C79.7886 34.3044 79.7973 34.3288 79.7973 34.354C79.7973 34.3793 79.7886 34.4037 79.7726 34.4232L79.1035 35.5786C79.0943 35.5891 79.0829 35.5975 79.0702 35.6032C79.0574 35.609 79.0436 35.612 79.0297 35.612C79.0157 35.612 79.0019 35.609 78.9892 35.6032C78.9765 35.5975 78.9651 35.5891 78.9559 35.5786C78.4276 35.1672 77.7841 34.9323 77.1158 34.907C76.3188 34.907 75.8072 35.2823 75.8072 35.8946C75.8072 36.5068 76.5648 36.8821 77.4406 37.2277C78.6213 37.7017 79.9595 38.2153 79.9595 39.8249C79.9595 41.1285 79.0346 42.4221 76.9486 42.4221Z" fill="#1E1C1D"/>
<path d="M144.883 37.8602L148.435 33.999C148.504 33.9298 148.435 33.8508 148.337 33.8508H146.575H146.477L142.541 38.1663V33.9397C142.536 33.9145 142.523 33.8917 142.503 33.8754C142.483 33.8591 142.458 33.8504 142.433 33.8508H141.065C140.986 33.8508 140.937 33.9002 140.937 33.9397V42.0868C140.937 42.0868 140.937 42.1856 141.065 42.1856H142.443C142.47 42.1857 142.496 42.1756 142.516 42.1573C142.536 42.1391 142.548 42.1139 142.551 42.0868V40.3784L143.791 39.0354L146.457 42.1461C146.489 42.154 146.523 42.154 146.556 42.1461H148.356C148.464 42.1461 148.524 42.0671 148.455 41.9881L144.883 37.8602Z" fill="#1E1C1D"/>
</svg>
