<svg width="32" height="32" viewBox="0 0 32 32" fill="none" xmlns="http://www.w3.org/2000/svg">
<g clip-path="url(#clip0)">
<path d="M30.2336 5.65512e-08H1.76489C0.790039 0.000488338 -0.000244084 0.79126 5.65512e-08 1.76636V30.2351C0.000488338 31.21 0.79126 32.0002 1.76636 32H30.2336C31.209 32.0002 31.9998 31.2097 32 30.2344C32 30.2341 32 30.2339 32 30.2336V1.76489C31.9995 0.790039 31.2087 -0.000244084 30.2336 5.65512e-08Z" fill="#4267B2"/>
<path d="M22.0938 32V19.625H26.2656L26.8906 14.7812H22.0938V11.6963C22.0938 10.2971 22.4822 9.34375 24.4885 9.34375H27.0312V5.02319C26.5889 4.96436 25.071 4.83276 23.3049 4.83276C19.6174 4.83276 17.0938 7.08276 17.0938 11.2166V14.7812H12.9375V19.625H17.0938V32H22.0938Z" fill="white"/>
</g>
<defs>
<clipPath id="clip0">
<rect width="32" height="32" rx="7" fill="white"/>
</clipPath>
</defs>
</svg>
