<svg width="32" height="32" viewBox="0 0 32 32" fill="none" xmlns="http://www.w3.org/2000/svg">
<g clip-path="url(#clip0)">
<path d="M1.99998 2.17735C-0.514686 4.78935 -1.9148e-05 7.56402 -1.9148e-05 15.9934C-1.9148e-05 22.9934 -1.22135 30.0107 5.17065 31.6627C7.16665 32.176 24.852 32.176 26.8453 31.66C29.5066 30.9734 31.672 28.8147 31.968 25.0507C32.0093 24.5254 32.0093 7.47069 31.9666 6.93469C31.652 2.92535 29.184 0.614688 25.932 0.146688C25.1866 0.0386878 25.0373 0.00668784 21.2133 2.11708e-05C7.64931 0.00668784 4.67598 -0.597312 1.99998 2.17735Z" fill="url(#paint0_linear)"/>
<path d="M15.9974 4.18535C11.156 4.18535 6.5587 3.75469 4.8027 8.26135C4.07737 10.1227 4.1827 12.54 4.1827 16.0014C4.1827 19.0387 4.08537 21.8934 4.8027 23.74C6.5547 28.2494 11.1894 27.8174 15.9947 27.8174C20.6307 27.8174 25.4107 28.3 27.188 23.74C27.9147 21.86 27.808 19.4787 27.808 16.0014C27.808 11.3854 28.0627 8.40535 25.824 6.16802C23.5574 3.90135 20.492 4.18535 15.992 4.18535H15.9974ZM14.9387 6.31469C25.0374 6.29869 26.3227 5.17602 25.6134 20.772C25.3614 26.288 21.1614 25.6827 15.9987 25.6827C6.58537 25.6827 6.3147 25.4134 6.3147 15.996C6.3147 6.46935 7.06137 6.32002 14.9387 6.31202V6.31469ZM22.304 8.27602C21.5214 8.27602 20.8867 8.91069 20.8867 9.69335C20.8867 10.476 21.5214 11.1107 22.304 11.1107C23.0867 11.1107 23.7214 10.476 23.7214 9.69335C23.7214 8.91069 23.0867 8.27602 22.304 8.27602ZM15.9974 9.93335C12.6467 9.93335 9.9307 12.6507 9.9307 16.0014C9.9307 19.352 12.6467 22.068 15.9974 22.068C19.348 22.068 22.0627 19.352 22.0627 16.0014C22.0627 12.6507 19.348 9.93335 15.9974 9.93335ZM15.9974 12.0627C21.204 12.0627 21.2107 19.94 15.9974 19.94C10.792 19.94 10.784 12.0627 15.9974 12.0627Z" fill="white"/>
</g>
<defs>
<linearGradient id="paint0_linear" x1="2.06134" y1="29.9561" x2="31.802" y2="4.21599" gradientUnits="userSpaceOnUse">
<stop stop-color="#FFDD55"/>
<stop offset="0.5" stop-color="#FF543E"/>
<stop offset="1" stop-color="#C837AB"/>
</linearGradient>
<clipPath id="clip0">
<rect width="32" height="32" rx="7" fill="white"/>
</clipPath>
</defs>
</svg>
