<svg width="194" height="57" viewBox="0 0 194 57" fill="none" xmlns="http://www.w3.org/2000/svg">
<path d="M29.7498 2.71428V0H27.0452V2.71428H24.3407V5.42856V8.14284H27.0452V10.8571H29.7498V8.14284H32.4543V5.42856V2.71428H29.7498Z" fill="white"/>
<path d="M29.7498 48.8571V46.1428H27.0452V48.8571H24.3407V51.5714V54.2857H27.0452V56.9999H29.7498V54.2857H32.4543V51.5714V48.8571H29.7498Z" fill="white"/>
<path d="M8.1136 27.1431V24.4288H5.40906H2.70453V27.1431H0V29.8574H2.70453V32.5717H5.40906H8.1136V29.8574H10.8181V27.1431H8.1136Z" fill="white"/>
<path d="M54.0905 27.1431V24.4288H51.386H48.6815V27.1431H45.9769V29.8574H48.6815V32.5717H51.386H54.0905V29.8574H56.795V27.1431H54.0905Z" fill="white"/>
<path d="M43.2722 27.143V24.4287H45.9768V21.7144H48.6813V19.0001H51.3858V16.2858H48.6813H45.9768H43.2722H40.5677V13.5716V10.8573V8.14299V5.42871H37.8632V8.14299H35.1587V10.8573H32.4541V13.5716H29.7496H27.0451H24.3405V10.8573H21.636V8.14299H18.9315V5.42871H16.2269V8.14299V10.8573V13.5716V16.2858H13.5224H10.8179H8.11335H5.40881V19.0001H8.11335V21.7144H10.8179V24.4287H13.5224V27.143V29.8572V32.5715H10.8179V35.2858H8.11335V38.0001H5.40881V40.7144H8.11335H10.8179H13.5224H16.2269V43.4286V46.1429V48.8572V51.5715H18.9315V48.8572H21.636V46.1429H24.3405V43.4286H27.0451H29.7496H32.4541V46.1429H35.1587V48.8572H37.8632V51.5715H40.5677V48.8572V46.1429V43.4286V40.7144H43.2722H45.9768H48.6813H51.3858V38.0001H48.6813V35.2858H45.9768V32.5715H43.2722V29.8572V27.143Z" fill="white"/>
<path d="M29.4039 28.1841L36.3854 20.6173C36.5269 20.4753 36.3854 20.3096 36.1967 20.3096H32.8161C32.7504 20.325 32.687 20.3489 32.6274 20.3806L24.8283 28.8548V20.5147C24.8242 20.4617 24.7998 20.4123 24.7602 20.377C24.7206 20.3417 24.6689 20.3232 24.616 20.3254H21.9036C21.8757 20.3221 21.8474 20.3244 21.8204 20.3321C21.7934 20.3399 21.7682 20.353 21.7462 20.3706C21.7243 20.3882 21.7061 20.41 21.6926 20.4348C21.6791 20.4595 21.6707 20.4867 21.6677 20.5147V36.5006C21.6707 36.5286 21.6791 36.5558 21.6926 36.5805C21.7061 36.6053 21.7243 36.6271 21.7462 36.6447C21.7682 36.6623 21.7934 36.6754 21.8204 36.6832C21.8474 36.6909 21.8757 36.6932 21.9036 36.6899H24.616C24.6689 36.6921 24.7206 36.6736 24.7602 36.6383C24.7998 36.603 24.8242 36.5536 24.8283 36.5006V33.1393L27.2733 30.496L32.5094 36.611C32.5661 36.6488 32.6307 36.6731 32.6981 36.6821H36.2282C36.4404 36.6821 36.5584 36.5164 36.4169 36.3743L29.4039 28.1841Z" fill="#E0211C"/>
<path d="M166.505 19.1853C165.62 19.1853 164.754 19.4488 164.018 19.9426C163.282 20.4363 162.708 21.138 162.369 21.9591C162.03 22.7801 161.941 23.6835 162.114 24.5552C162.287 25.4268 162.713 26.2274 163.339 26.8558C163.966 27.4842 164.763 27.9121 165.632 28.0855C166.5 28.2589 167.4 28.1699 168.219 27.8298C169.037 27.4897 169.736 26.9138 170.228 26.1749C170.72 25.436 170.982 24.5673 170.982 23.6786C170.982 22.4869 170.511 21.344 169.671 20.5013C168.831 19.6587 167.693 19.1853 166.505 19.1853ZM166.505 26.572C165.933 26.5798 165.371 26.4169 164.891 26.104C164.41 25.791 164.033 25.3421 163.808 24.8141C163.582 24.286 163.517 23.7026 163.622 23.1377C163.727 22.5728 163.996 22.0518 164.396 21.6406C164.796 21.2295 165.309 20.9467 165.869 20.8281C166.429 20.7095 167.012 20.7605 167.543 20.9744C168.075 21.1884 168.531 21.5559 168.854 22.0302C169.177 22.5045 169.353 23.0645 169.359 23.6391C169.359 24.4014 169.059 25.1329 168.525 25.6746C167.99 26.2164 167.265 26.5247 166.505 26.5325V26.572Z" fill="white"/>
<path d="M193.87 20.9433C193.694 20.4786 193.382 20.0785 192.974 19.7962C192.566 19.514 192.083 19.363 191.587 19.3633H187.651V27.9844H189.304V24.2911H191.538C192.034 24.2892 192.518 24.1362 192.926 23.8523C193.333 23.5684 193.646 23.167 193.821 22.7011C193.935 22.4221 193.995 22.1238 193.998 21.8222C194.01 21.5238 193.967 21.2258 193.87 20.9433ZM191.587 22.7011H189.354V20.9433H191.587C191.82 20.9433 192.042 21.0359 192.207 21.2008C192.371 21.3656 192.463 21.5891 192.463 21.8222C192.463 22.0553 192.371 22.2789 192.207 22.4437C192.042 22.6085 191.82 22.7011 191.587 22.7011Z" fill="white"/>
<path d="M158.289 27.9162L156.262 24.1241C156.592 24.0055 156.893 23.8159 157.143 23.5686C157.393 23.3212 157.586 23.0222 157.708 22.6922C157.819 22.4126 157.876 22.1143 157.876 21.8133C157.875 21.5124 157.819 21.2143 157.708 20.9344C157.533 20.4696 157.22 20.0696 156.812 19.7873C156.405 19.5051 155.921 19.3541 155.426 19.3544H150.033V27.9755H151.647V24.292H154.599L156.567 27.9162H158.289ZM151.647 20.9443H155.386C155.618 20.9443 155.841 21.0369 156.005 21.2017C156.17 21.3665 156.262 21.5901 156.262 21.8232C156.262 22.0563 156.17 22.2798 156.005 22.4447C155.841 22.6095 155.618 22.7021 155.386 22.7021H151.647V20.9443Z" fill="white"/>
<path d="M144.022 23.6396H141.257V25.2197H143.549C143.275 25.6377 142.898 25.9772 142.455 26.2052C142.011 26.4332 141.516 26.5419 141.018 26.5206C140.52 26.4993 140.036 26.3487 139.613 26.0837C139.19 25.8186 138.843 25.4481 138.606 25.0082C138.368 24.5684 138.248 24.0742 138.258 23.574C138.268 23.0739 138.406 22.5847 138.66 22.1544C138.915 21.724 139.276 21.3672 139.708 21.1186C140.141 20.8701 140.63 20.7384 141.129 20.7363C141.585 20.7353 142.035 20.8442 142.441 21.0539C142.847 21.2635 143.196 21.5677 143.461 21.9411L144.72 20.9536C144.086 20.0991 143.169 19.4995 142.133 19.2622C141.098 19.0249 140.012 19.1655 139.071 19.6587C138.13 20.1519 137.394 20.9655 136.997 21.9537C136.599 22.9418 136.565 24.0398 136.901 25.0508C137.236 26.0619 137.92 26.9198 138.829 27.4707C139.738 28.0217 140.813 28.2297 141.861 28.0575C142.909 27.8852 143.861 27.344 144.547 26.5308C145.234 25.7176 145.609 24.6856 145.606 23.6199L144.022 23.6396Z" fill="white"/>
<path d="M181.019 19.3633V25.4563C181.013 25.6189 180.969 25.7778 180.891 25.9205C180.809 26.0848 180.682 26.2228 180.526 26.3188C180.369 26.4147 180.189 26.4649 180.006 26.4636H178.274C178.09 26.4649 177.91 26.4147 177.754 26.3188C177.597 26.2228 177.471 26.0848 177.388 25.9205C177.31 25.7778 177.266 25.6189 177.26 25.4563V19.3633H175.607V25.4465C175.607 25.7974 175.676 26.145 175.81 26.4691C175.944 26.7932 176.141 27.0876 176.389 27.3353C176.637 27.5831 176.931 27.7793 177.254 27.9127C177.578 28.0461 177.924 28.1141 178.274 28.1128H180.006C180.355 28.1141 180.702 28.0461 181.025 27.9127C181.349 27.7793 181.643 27.5831 181.891 27.3353C182.138 27.0876 182.335 26.7932 182.469 26.4691C182.603 26.145 182.672 25.7974 182.672 25.4465V19.3633H181.019Z" fill="white"/>
<path d="M113.921 19.1853C113.036 19.1853 112.17 19.4488 111.434 19.9426C110.698 20.4363 110.124 21.138 109.785 21.9591C109.446 22.7801 109.357 23.6835 109.53 24.5552C109.703 25.4268 110.129 26.2274 110.756 26.8558C111.382 27.4842 112.179 27.9121 113.048 28.0855C113.916 28.2589 114.817 28.1699 115.635 27.8298C116.453 27.4897 117.152 26.9138 117.644 26.1749C118.136 25.436 118.398 24.5673 118.398 23.6786C118.398 22.4869 117.927 21.344 117.087 20.5013C116.248 19.6587 115.109 19.1853 113.921 19.1853ZM113.921 26.572C113.349 26.572 112.789 26.4015 112.313 26.082C111.837 25.7626 111.466 25.3085 111.248 24.7775C111.029 24.2464 110.972 23.6621 111.085 23.0986C111.197 22.5352 111.474 22.0179 111.879 21.6122C112.285 21.2066 112.801 20.9308 113.363 20.8199C113.925 20.709 114.507 20.7679 115.035 20.9892C115.564 21.2105 116.015 21.5841 116.331 22.0629C116.648 22.5416 116.816 23.1039 116.814 23.6786C116.804 24.4408 116.494 25.1681 115.953 25.7025C115.411 26.2369 114.681 26.5352 113.921 26.5325V26.572Z" fill="white"/>
<path d="M89.5385 19.1853C88.6526 19.1834 87.786 19.4452 87.0484 19.9378C86.3109 20.4303 85.7355 21.1314 85.3951 21.9522C85.0548 22.7731 84.9647 23.6768 85.1363 24.5491C85.308 25.4214 85.7336 26.2229 86.3594 26.8523C86.9851 27.4817 87.7828 27.9106 88.6516 28.0848C89.5203 28.2589 90.421 28.1705 91.2397 27.8307C92.0583 27.4909 92.7581 26.915 93.2505 26.1759C93.7429 25.4368 94.0057 24.5677 94.0057 23.6786C94.0057 22.4886 93.5354 21.3472 92.6979 20.5048C91.8604 19.6625 90.7242 19.1879 89.5385 19.1853ZM89.5385 26.572C88.9655 26.574 88.4048 26.4051 87.9276 26.0868C87.4503 25.7686 87.078 25.3152 86.8578 24.7843C86.6377 24.2534 86.5795 23.6688 86.6909 23.1047C86.8022 22.5406 87.0779 22.0224 87.4831 21.6157C87.8882 21.2091 88.4046 20.9324 88.9667 20.8207C89.5288 20.709 90.1112 20.7673 90.6402 20.9883C91.1693 21.2092 91.621 21.5829 91.9381 22.0619C92.2552 22.5408 92.4235 23.1035 92.4215 23.6786C92.4112 24.4391 92.1029 25.165 91.5633 25.6991C91.0238 26.2332 90.2963 26.5326 89.5385 26.5325V26.572Z" fill="white"/>
<path d="M126.368 26.5332C125.862 26.5347 125.363 26.4026 124.924 26.1501C124.484 25.8976 124.118 25.5336 123.862 25.0945C123.606 24.6554 123.47 24.1566 123.467 23.6481C123.464 23.1395 123.594 22.6391 123.844 22.1968C124.094 21.7545 124.456 21.386 124.892 21.128C125.329 20.87 125.825 20.7316 126.332 20.7267C126.839 20.7218 127.338 20.8506 127.779 21.1001C128.221 21.3497 128.589 21.7112 128.848 22.1486L129.999 21.0623C129.454 20.2754 128.672 19.6839 127.768 19.3738C126.864 19.0637 125.885 19.0512 124.973 19.3382C124.062 19.6253 123.265 20.1968 122.7 20.9695C122.134 21.7423 121.83 22.6761 121.83 23.6348C121.83 24.5936 122.134 25.5273 122.7 26.3001C123.265 27.0729 124.062 27.6444 124.973 27.9315C125.885 28.2185 126.864 28.206 127.768 27.8959C128.672 27.5858 129.454 26.9943 129.999 26.2074L128.848 25.1112C128.593 25.5439 128.231 25.9027 127.796 26.152C127.361 26.4014 126.869 26.5327 126.368 26.5332Z" fill="white"/>
<path d="M102.241 23.5606L105.794 19.7093C105.872 19.6401 105.794 19.5513 105.695 19.5513H103.983C103.95 19.5464 103.917 19.5464 103.885 19.5513L99.9488 23.8668V19.65C99.9463 19.6229 99.9338 19.5978 99.9138 19.5795C99.8938 19.5612 99.8676 19.5511 99.8406 19.5513H98.4236C98.4094 19.5499 98.395 19.5514 98.3814 19.5556C98.3677 19.5599 98.3551 19.5668 98.3441 19.5759C98.3331 19.5851 98.324 19.5964 98.3174 19.6091C98.3108 19.6218 98.3068 19.6357 98.3055 19.65V27.7971C98.3104 27.8242 98.3252 27.8484 98.3471 27.8649C98.3691 27.8814 98.3964 27.8889 98.4236 27.886H99.811C99.8366 27.8864 99.8616 27.8777 99.8814 27.8615C99.9012 27.8452 99.9146 27.8224 99.9193 27.7971V26.0986L101.159 24.7457L103.826 27.8662H103.924H105.725C105.833 27.8662 105.892 27.7872 105.823 27.7181L102.241 23.5606Z" fill="white"/>
<path d="M77.8489 23.5606L81.4011 19.7093C81.4798 19.6401 81.4011 19.5513 81.3125 19.5513H79.5905C79.5579 19.5464 79.5248 19.5464 79.4921 19.5513L75.5562 23.8668V19.65C75.5538 19.6229 75.5413 19.5978 75.5212 19.5795C75.5012 19.5612 75.4751 19.5511 75.448 19.5513H74.031C74.0168 19.5499 74.0025 19.5514 73.9888 19.5556C73.9752 19.5599 73.9625 19.5668 73.9515 19.5759C73.9405 19.5851 73.9315 19.5964 73.9249 19.6091C73.9182 19.6218 73.9142 19.6357 73.913 19.65V27.7971C73.9178 27.8242 73.9327 27.8484 73.9546 27.8649C73.9765 27.8814 74.0038 27.8889 74.031 27.886H75.4185C75.4441 27.8864 75.469 27.8777 75.4888 27.8615C75.5086 27.8452 75.522 27.8224 75.5267 27.7971V26.0986L76.7665 24.7358L79.4331 27.8564H79.5315H81.3322C81.4404 27.8564 81.4995 27.7774 81.4306 27.7082L77.8489 23.5606Z" fill="white"/>
<path d="M103.605 42.1256L102.07 39.6963C102.52 39.3724 102.878 38.9357 103.107 38.4297C103.337 37.9238 103.43 37.3662 103.378 36.8127C103.281 36.0082 102.891 35.2683 102.282 34.7358C101.673 34.2033 100.889 33.9159 100.082 33.9291H96.5003C96.477 33.9257 96.4533 33.9309 96.4334 33.9435C96.4136 33.9562 96.3989 33.9756 96.3921 33.9982V42.1454C96.3921 42.1689 96.4014 42.1915 96.418 42.2082C96.4346 42.2249 96.4572 42.2342 96.4806 42.2342H97.9074C97.9309 42.2342 97.9534 42.2249 97.97 42.2082C97.9866 42.1915 97.996 42.1689 97.996 42.1454V40.269H100.515L101.735 42.2441C101.761 42.2531 101.788 42.2531 101.814 42.2441H103.506C103.522 42.2468 103.537 42.2454 103.552 42.2401C103.567 42.2347 103.58 42.2255 103.59 42.2135C103.6 42.2015 103.606 42.187 103.609 42.1716C103.612 42.1561 103.61 42.1403 103.605 42.1256ZM98.0157 35.5487H100.22C100.435 35.5315 100.651 35.5592 100.855 35.6301C101.059 35.701 101.247 35.8134 101.405 35.9605C101.564 36.1075 101.69 36.2859 101.777 36.4844C101.864 36.6829 101.908 36.8972 101.908 37.1139C101.908 37.3306 101.864 37.5449 101.777 37.7434C101.69 37.9419 101.564 38.1203 101.405 38.2673C101.247 38.4144 101.059 38.5268 100.855 38.5977C100.651 38.6686 100.435 38.6963 100.22 38.6791H98.0157V35.5487Z" fill="white"/>
<path d="M124.612 33.9984V39.3409L120.991 33.9984C120.977 33.9921 120.962 33.9889 120.947 33.9889C120.932 33.9889 120.917 33.9921 120.903 33.9984H119.446C119.42 33.9984 119.395 34.0088 119.377 34.0273C119.358 34.0459 119.348 34.071 119.348 34.0972V42.2344C119.346 42.2477 119.348 42.2613 119.352 42.274C119.357 42.2867 119.364 42.2982 119.373 42.3077C119.383 42.3172 119.394 42.3245 119.407 42.3289C119.42 42.3333 119.433 42.3347 119.446 42.3332H120.863C120.889 42.3332 120.914 42.3228 120.933 42.3042C120.951 42.2857 120.962 42.2606 120.962 42.2344V36.8919L124.612 42.3332H126.128C126.141 42.3347 126.154 42.3333 126.167 42.3289C126.18 42.3245 126.191 42.3172 126.201 42.3077C126.21 42.2982 126.217 42.2867 126.222 42.274C126.226 42.2613 126.228 42.2477 126.226 42.2344V33.9984C126.226 33.9722 126.216 33.9471 126.197 33.9286C126.179 33.9101 126.154 33.8997 126.128 33.8997H124.711C124.685 33.9019 124.661 33.913 124.643 33.9311C124.626 33.9491 124.614 33.973 124.612 33.9984Z" fill="white"/>
<path d="M90.3991 42.1858H91.7963C91.8122 42.1866 91.8279 42.1835 91.8423 42.1768C91.8567 42.1701 91.8692 42.16 91.8789 42.1474C91.8886 42.1348 91.895 42.12 91.8978 42.1044C91.9006 42.0887 91.8995 42.0726 91.8947 42.0575L88.9428 33.9104C88.9336 33.8922 88.9195 33.877 88.9021 33.8666C88.8847 33.8561 88.8647 33.8507 88.8444 33.8511H87.3094C87.2902 33.85 87.2712 33.8552 87.2552 33.8659C87.2393 33.8766 87.2272 33.8922 87.2208 33.9104L84.2689 42.0575C84.2617 42.0717 84.2585 42.0877 84.2596 42.1036C84.2607 42.1196 84.2661 42.1349 84.2751 42.1481C84.2842 42.1612 84.2966 42.1717 84.3111 42.1783C84.3256 42.1849 84.3416 42.1876 84.3574 42.1858H85.7547C85.7761 42.1854 85.7968 42.1785 85.8143 42.1662C85.8318 42.1539 85.8453 42.1367 85.8531 42.1167L86.5419 40.2305H89.6316L90.3302 42.1167C90.3347 42.1332 90.3434 42.1483 90.3555 42.1604C90.3676 42.1725 90.3826 42.1813 90.3991 42.1858ZM87.1126 38.6011L88.0966 35.994L89.0805 38.6011H87.1126Z" fill="white"/>
<path d="M113.798 42.1857H115.196C115.211 42.1864 115.227 42.1833 115.242 42.1766C115.256 42.1699 115.269 42.1599 115.278 42.1472C115.288 42.1346 115.294 42.1199 115.297 42.1042C115.3 42.0886 115.299 42.0725 115.294 42.0573L112.342 33.9102C112.335 33.8928 112.322 33.878 112.306 33.8675C112.291 33.857 112.272 33.8513 112.254 33.851H110.709C110.69 33.8513 110.671 33.857 110.656 33.8675C110.64 33.878 110.628 33.8928 110.62 33.9102L107.668 42.0573C107.664 42.0717 107.662 42.0869 107.665 42.1018C107.667 42.1167 107.673 42.1309 107.681 42.1433C107.69 42.1557 107.701 42.1659 107.714 42.1733C107.727 42.1806 107.742 42.1849 107.757 42.1857H109.183C109.204 42.1846 109.223 42.1774 109.239 42.165C109.254 42.1527 109.266 42.1358 109.272 42.1166L109.961 40.2304H113.021L113.71 42.1166C113.716 42.1358 113.727 42.1527 113.743 42.165C113.759 42.1774 113.778 42.1846 113.798 42.1857ZM110.522 38.601L111.506 35.9939L112.49 38.601H110.522Z" fill="white"/>
<path d="M133.606 42.4222C132.495 42.4362 131.418 42.0349 130.585 41.2964C130.569 41.2769 130.56 41.2525 130.56 41.2272C130.56 41.202 130.569 41.1776 130.585 41.1581L131.412 40.0817C131.42 40.0714 131.431 40.0631 131.442 40.0574C131.454 40.0517 131.467 40.0487 131.481 40.0487C131.494 40.0487 131.507 40.0517 131.519 40.0574C131.531 40.0631 131.541 40.0714 131.549 40.0817C132.145 40.5768 132.883 40.8675 133.655 40.9112C134.413 40.9112 134.915 40.5458 134.915 39.9237C134.915 39.3016 134.137 38.9362 133.242 38.5313C132.071 38.0375 130.752 37.4845 130.752 35.9538C130.752 34.4232 132.022 33.406 133.842 33.406C134.776 33.3959 135.686 33.706 136.42 34.2849C136.436 34.3044 136.445 34.3288 136.445 34.354C136.445 34.3793 136.436 34.4037 136.42 34.4232L135.751 35.6082C135.742 35.6187 135.73 35.6271 135.718 35.6329C135.705 35.6386 135.691 35.6416 135.677 35.6416C135.663 35.6416 135.65 35.6386 135.637 35.6329C135.624 35.6271 135.613 35.6187 135.603 35.6082C135.076 35.2154 134.44 34.9978 133.783 34.986C132.986 34.986 132.474 35.3613 132.474 35.9736C132.474 36.5858 133.232 36.9611 134.118 37.3067C135.298 37.7808 136.637 38.2943 136.637 39.904C136.617 41.1285 135.682 42.4222 133.606 42.4222Z" fill="white"/>
<path d="M76.9487 42.4221C75.8403 42.4366 74.7665 42.0351 73.9377 41.2964C73.9217 41.2769 73.913 41.2525 73.913 41.2272C73.913 41.202 73.9217 41.1776 73.9377 41.1581L74.7643 40.0817C74.7735 40.0712 74.7848 40.0628 74.7976 40.057C74.8103 40.0512 74.8241 40.0483 74.8381 40.0483C74.852 40.0483 74.8658 40.0512 74.8785 40.057C74.8913 40.0628 74.9026 40.0712 74.9118 40.0817C75.503 40.5779 76.2382 40.8689 77.0077 40.9112C77.7752 40.9112 78.2672 40.5458 78.2672 39.9237C78.2672 39.3015 77.4899 38.9362 76.5945 38.5313C75.4334 38.0375 74.105 37.4845 74.105 35.9538C74.105 34.4232 75.3743 33.406 77.1947 33.406C78.1287 33.3959 79.0381 33.706 79.7727 34.2849C79.7887 34.3044 79.7975 34.3288 79.7975 34.354C79.7975 34.3793 79.7887 34.4037 79.7727 34.4232L79.1036 35.5786C79.0944 35.5891 79.083 35.5975 79.0703 35.6032C79.0576 35.609 79.0438 35.612 79.0298 35.612C79.0158 35.612 79.002 35.609 78.9893 35.6032C78.9766 35.5975 78.9652 35.5891 78.956 35.5786C78.4277 35.1672 77.7842 34.9323 77.116 34.907C76.3189 34.907 75.8073 35.2823 75.8073 35.8946C75.8073 36.5068 76.5649 36.8821 77.4407 37.2277C78.6215 37.7017 79.9597 38.2153 79.9597 39.8249C79.9597 41.1285 79.0347 42.4221 76.9487 42.4221Z" fill="white"/>
<path d="M144.883 37.8603L148.435 33.9991C148.504 33.93 148.435 33.851 148.337 33.851H146.575H146.477L142.541 38.1665V33.9398C142.536 33.9146 142.523 33.8918 142.503 33.8755C142.483 33.8592 142.458 33.8505 142.433 33.851H141.065C140.986 33.851 140.937 33.9003 140.937 33.9398V42.087C140.937 42.087 140.937 42.1857 141.065 42.1857H142.443C142.47 42.1858 142.496 42.1757 142.516 42.1575C142.536 42.1392 142.548 42.114 142.551 42.087V40.3785L143.791 39.0355L146.457 42.1462C146.489 42.1542 146.523 42.1542 146.556 42.1462H148.356C148.464 42.1462 148.524 42.0672 148.455 41.9882L144.883 37.8603Z" fill="white"/>
</svg>
