<svg width="32" height="32" viewBox="0 0 32 32" fill="none" xmlns="http://www.w3.org/2000/svg">
<path d="M32 0H0V32H32V0Z" fill="#29B6F6"/>
<path d="M25.1969 7.06376L3.7981 15.4026C3.10499 15.6728 3.14698 16.6674 3.86046 16.878L9.29812 18.4838L11.3275 24.9231C11.5394 25.5957 12.3918 25.7996 12.8852 25.2958L15.6966 22.4252L21.2129 26.4742C21.8879 26.9698 22.8493 26.6016 23.0207 25.782L26.6742 8.31482C26.8531 7.45923 26.0114 6.74638 25.1969 7.06376ZM22.5141 10.9402L12.5744 19.7298C12.4754 19.8174 12.4123 19.9387 12.3976 20.0701L12.0149 23.472C12.0024 23.5829 11.8471 23.5976 11.814 23.491L10.2395 18.4176C10.1674 18.1853 10.2614 17.9337 10.4681 17.8055L22.2057 10.5257C22.4757 10.3582 22.752 10.7298 22.5141 10.9402Z" fill="white"/>
</svg>
